<?xml version="1.0" encoding="UTF-8"?> <svg xmlns="http://www.w3.org/2000/svg" width="4479" height="2681" viewBox="0 0 4479 2681" fill="none"> <path d="M0.8125 2680.12L414.486 2222.17L686.199 2680.12H0.8125Z" fill="#DB3B5F"></path> <path d="M0.8125 2072.58L414.486 2222.17L0.8125 2680.12V2072.58Z" fill="#DD3B67"></path> <path d="M588.504 1781.02L414.486 2222.17L0.8125 2072.58V2055.79L588.504 1781.02Z" fill="#DF5091"></path> <path d="M0.8125 1350.56L588.504 1781.02L0.8125 2055.79V1350.56Z" fill="#EA4B6B"></path> <path d="M681.619 1262.02L588.504 1781.02L0.8125 1350.56V1306.29L681.619 1262.02Z" fill="#EA5E89"></path> <path d="M0.8125 651.433L681.619 1262.02L0.8125 1306.29V651.433Z" fill="#EE5C55"></path> <path d="M0.8125 616.324L982.334 651.433L681.619 1262.02L0.8125 651.433V616.324Z" fill="#EF6A48"></path> <path d="M0.8125 553.741L434.331 0.607422H506.074L982.334 651.434L0.8125 616.325V553.741Z" fill="#E94230"></path> <path d="M0.8125 0.607422H434.331L0.8125 553.741V0.607422Z" fill="#E73831"></path> <path d="M1112.08 0.607422L982.326 651.434L506.066 0.607422H1112.08Z" fill="#EA4A33"></path> <path d="M1704.35 603.349L1112.08 0.607422L982.332 651.434L1704.35 603.349Z" fill="#ED6963"></path> <path d="M1990.56 337.744L1704.35 603.349L1112.08 0.607422L1990.56 337.744Z" fill="#F28A8F"></path> <path d="M1903.55 0.607422L1990.56 337.744L1112.08 0.607422H1903.55Z" fill="#EF957F"></path> <path d="M2171.47 0.607422L1990.58 337.744L1903.57 0.607422H2171.47Z" fill="#F0B2B4"></path> <path d="M2991.17 88.1654L2734.72 0.607422H2171.45L1990.57 337.744L2991.17 88.1654Z" fill="#DFB9CF"></path> <path d="M2462.24 891.853L1990.56 337.743L1704.35 603.349L2462.24 891.853Z" fill="#D6548B"></path> <path d="M2991.17 88.167L1990.57 337.745L2462.25 891.855L2991.17 88.167Z" fill="#BD69AA"></path> <path d="M1333.42 857.507L982.336 651.433L681.621 1262.02L1333.42 857.507Z" fill="#F1899F"></path> <path d="M1704.35 603.348L982.332 651.432L1333.42 857.507L1704.35 603.348Z" fill="#EF8DB2"></path> <path d="M1773.04 1079.61L1704.35 603.348L2462.24 891.852L1773.04 1079.61Z" fill="#EF8DB2"></path> <path d="M1333.43 857.507L1704.36 603.348L1773.05 1079.61L1333.43 857.507Z" fill="#EAA5CD"></path> <path d="M1553.24 1340.36L1333.43 857.51L1773.05 1079.61L1553.24 1340.36Z" fill="#E16CAB"></path> <path d="M681.621 1262.02L1333.42 857.51L1553.24 1340.36L681.621 1262.02Z" fill="#EDA5CD"></path> <path d="M893.798 2336.66L414.484 2222.17L686.197 2680.12H758.704L893.798 2336.66Z" fill="#E64696"></path> <path d="M588.502 1781.02L893.798 2336.66L414.484 2222.17L588.502 1781.02Z" fill="#C9529C"></path> <path d="M1276.94 1822.24L681.621 1262.02L1553.24 1340.36L1276.94 1822.24Z" fill="#F06FA8"></path> <path d="M588.5 1781.02L1276.94 1822.24L681.616 1262.02L588.5 1781.02Z" fill="#E06FAC"></path> <path d="M893.796 2336.66L1276.94 1822.24L588.5 1781.02L893.796 2336.66Z" fill="#E64A98"></path> <path d="M1450.95 2680.12L893.793 2336.66L758.699 2680.12H1450.95Z" fill="#BE58A0"></path> <path d="M1276.94 1822.24L1498.28 2680.12H1450.96L893.797 2336.66L1276.94 1822.24Z" fill="#C85CA2"></path> <path d="M1498.28 2680.12L1276.94 1822.24L1937.9 2041.29L1525.76 2680.12H1498.28Z" fill="#AE5BA2"></path> <path d="M2462.25 891.854L2208.09 1597.08L1773.05 1079.61L2462.25 891.854Z" fill="#B265A9"></path> <path d="M1553.23 1340.36L1773.04 1079.61L2208.09 1597.08L1553.23 1340.36Z" fill="#B866A9"></path> <path d="M1937.9 2041.29L1553.23 1340.36L2208.09 1597.09L1937.9 2041.29Z" fill="#A260A6"></path> <path d="M1276.94 1822.24L1553.23 1340.36L1937.9 2041.29L1276.94 1822.24Z" fill="#C05DA3"></path> <path d="M2347.76 2680.12L1937.91 2041.29L1525.76 2680.12H2347.76Z" fill="#7755A0"></path> <path d="M2901.87 1968.02L1937.9 2041.29L2347.76 2680.12H2391.27L2901.87 1968.02Z" fill="#5659A5"></path> <path d="M2208.09 1597.08L1937.9 2041.29L2901.87 1968.02L2208.09 1597.08Z" fill="#6B60AA"></path> <path d="M2462.25 891.854L2901.87 1968.02L2208.09 1597.08L2462.25 891.854Z" fill="#7A56A1"></path> <path d="M2998.04 2371L2419.89 2680.12H2391.27L2901.87 1968.02L2998.04 2371Z" fill="#4858A6"></path> <path d="M3206.41 2680.12L2998.04 2371.01L2419.89 2680.12H3206.41Z" fill="#4254A2"></path> <path d="M3659.77 2162.64L3206.41 2680.12L2998.05 2371.01L3659.77 2162.64Z" fill="#4358A6"></path> <path d="M2462.25 891.854L3394.16 1342.93L2901.87 1968.02L2462.25 891.854Z" fill="#736EB4"></path> <path d="M2901.87 1968.02L3659.76 2162.64L2998.03 2371L2901.87 1968.02Z" fill="#455AA7"></path> <path d="M3394.15 1342.93L3659.76 2162.64L2901.87 1968.02L3394.15 1342.93Z" fill="#4968B2"></path> <path d="M2462.25 891.854L3394.16 1342.93L2901.87 1968.02L2462.25 891.854Z" fill="#736EB4"></path> <path d="M3199.53 730.432L3394.16 1342.93L2462.25 891.856L3199.53 730.432Z" fill="#6292CC"></path> <path d="M2991.17 88.167L3199.53 730.431L2462.25 891.855L2991.17 88.167Z" fill="#96B8E0"></path> <path d="M2947.67 0.607422L2991.17 88.1654L2734.73 0.607422H2947.67Z" fill="#CCDADF"></path> <path d="M3075.89 0.607422L2991.18 88.1654L2947.67 0.607422H3075.89Z" fill="#B5E1EF"></path> <path d="M3941.4 0.607422L3671.21 88.1654H2991.17L3075.89 0.607422H3941.4Z" fill="#A6DCEF"></path> <path d="M3199.53 730.431L2991.17 88.167H3671.21L3199.53 730.431Z" fill="#B1DFE8"></path> <path d="M3941.4 0.607422L3671.22 88.1654L3785.7 569.005L4163.51 0.607422H3941.4Z" fill="#DEF2F7"></path> <path d="M4257.39 0.607422H4163.51L3785.71 569.005L4478.39 637.696V381.249L4257.39 0.607422Z" fill="#D0ECF8"></path> <path d="M4478.38 0.607422V381.249L4257.38 0.607422H4478.38Z" fill="#E5F5FA"></path> <path d="M3199.54 730.431L3671.22 88.167L3785.7 569.006L3199.54 730.431Z" fill="#9DD8E6"></path> <path d="M3394.16 1342.93L3199.54 730.429L3785.7 569.005L3394.16 1342.93Z" fill="#75C9E3"></path> <path d="M4012.39 1164.33L3785.71 569.005L4478.39 637.696V775.08L4012.39 1164.33Z" fill="#9FD9EF"></path> <path d="M3394.15 1342.93L3785.69 569.005L4012.37 1164.33L3394.15 1342.93Z" fill="#69C6E7"></path> <path d="M3659.76 2162.64L3907.05 1723.02L3394.15 1342.93L3659.76 2162.64Z" fill="#4577BF"></path> <path d="M4012.37 1164.33L3907.05 1723.02L3394.15 1342.93L4012.37 1164.33Z" fill="#428DD2"></path> <path d="M4478.38 1123.11L4323.78 1585.63L4012.38 1164.33L4478.38 775.079V1123.11Z" fill="#50BFEE"></path> <path d="M4478.38 1597.09L4323.78 1585.64L4478.38 1123.12V1597.09Z" fill="#4874BD"></path> <path d="M4245.38 2469.46L4323.77 1585.63L4478.38 1690.82V2360.7L4245.38 2469.46Z" fill="#4158A5"></path> <path d="M4478.38 1597.08L4323.78 1585.63L4478.38 1690.82V1597.08Z" fill="#3D54A2"></path> <path d="M4478.38 2680.12L4245.38 2469.46L4478.38 2360.7V2680.12Z" fill="#3D509F"></path> <path d="M3206.41 2680.12L3659.77 2162.64L4245.38 2469.46L3206.41 2680.12Z" fill="#4356A4"></path> <path d="M3907.06 1723.02L3871.57 2061.9L3659.77 2162.64L3907.06 1723.02Z" fill="#4257A5"></path> <path d="M4323.78 1595.36L3907.05 1732.75L4012.38 1174.06L4323.78 1595.36Z" fill="#4091D6"></path> <path d="M4478.39 2680.12L4245.38 2469.46L3206.41 2680.12H4478.39Z" fill="#3E519F"></path> <path d="M3659.77 2162.64L3871.57 2061.89L4245.39 2469.46L3659.77 2162.64Z" fill="#4255A3"></path> <path d="M3871.56 2061.89L3907.05 1723.02L4323.78 1585.63L3871.56 2061.89Z" fill="#446CB6"></path> <path d="M4245.38 2469.46L3871.56 2061.89L4323.78 1585.63L4245.38 2469.46Z" fill="#4563AE"></path> </svg> 